<?xml version="1.0" standalone="no"?>
<!DOCTYPE svg PUBLIC "-//W3C//DTD SVG 20010904//EN"
 "http://www.w3.org/TR/2001/REC-SVG-20010904/DTD/svg10.dtd">
<svg version="1.0" xmlns="http://www.w3.org/2000/svg"
 width="310.000000pt" height="455.000000pt" viewBox="0 0 310.000000 455.000000"
 preserveAspectRatio="xMidYMid meet">

<g transform="translate(0.000000,455.000000) scale(0.100000,-0.100000)"
fill="#E3CF5B" stroke="none">
<path d="M1450 4447 c-91 -26 -182 -104 -222 -192 -34 -74 -33 -199 3 -275 34
-72 97 -136 167 -168 49 -23 70 -27 152 -27 88 0 101 3 162 33 134 66 199 201
175 360 -15 104 -88 201 -184 249 -65 31 -180 41 -253 20z m208 -124 c79 -37
132 -123 132 -212 0 -76 -62 -165 -142 -207 -156 -81 -355 62 -334 239 11 99
93 188 186 206 58 10 93 5 158 -26z"/>
<path d="M61 3301 c-18 -33 -15 -1321 4 -1441 25 -168 81 -305 182 -449 43
-61 1287 -1310 1306 -1311 4 0 290 282 636 628 468 467 639 645 673 697 83
128 131 236 165 375 14 56 17 163 20 778 3 536 1 717 -8 728 -9 12 -77 14
-398 14 -340 0 -397 -3 -478 -19 -106 -22 -222 -69 -308 -126 -86 -56 -203
-179 -255 -268 -25 -43 -48 -77 -52 -77 -4 0 -24 32 -44 70 -91 173 -288 323
-516 392 -69 21 -94 22 -495 26 -413 3 -422 3 -432 -17z m2248 -637 c-303
-302 -582 -582 -622 -621 -39 -40 -75 -73 -80 -73 -5 0 -7 137 -5 338 l4 337
28 80 c36 103 99 197 190 282 90 84 160 126 273 167 l88 31 335 5 c184 3 336
5 337 4 2 0 -245 -247 -548 -550z m-1314 513 c235 -83 408 -251 476 -462 21
-65 22 -92 27 -409 3 -239 1 -337 -7 -335 -5 2 -289 282 -630 622 l-619 618
336 -3 337 -3 80 -28z m185 -1054 l315 -312 0 -400 c0 -221 -3 -400 -7 -398
-4 1 -305 299 -668 661 l-660 660 0 400 0 400 353 -350 c193 -192 494 -490
667 -661z m1193 -355 c-313 -309 -612 -606 -665 -659 -84 -84 -97 -93 -102
-75 -3 12 -6 190 -6 396 l-1 375 668 661 668 661 3 -398 2 -398 -567 -563z
m-995 -806 l113 -119 2 -266 c1 -147 0 -267 -3 -267 -3 0 -260 255 -571 568
-347 347 -580 589 -603 624 -106 165 -146 298 -153 518 l-6 155 554 -547 c305
-301 605 -600 667 -666z m1546 885 c-30 -150 -89 -280 -180 -398 -25 -32 -290
-303 -589 -602 -519 -517 -544 -541 -549 -513 -3 16 -6 137 -6 270 l-1 241
668 661 668 662 3 -121 c2 -82 -3 -146 -14 -200z"/>
</g>
</svg>
